Coordinates
version=1
nRows=33
nColumns=24
inDegrees=yes

Units are S.I. units (second, meters, Newtons, ...)
If the header above contains a line with 'inDegrees', this indicates whether rotational values are in degrees (yes) or radians (no).

endheader
time	pelvis_tilt	pelvis_list	pelvis_rotation	pelvis_tx	pelvis_ty	pelvis_tz	hip_flexion_r	hip_adduction_r	hip_rotation_r	knee_angle_r	ankle_angle_r	subtalar_angle_r	mtp_angle_r	hip_flexion_l	hip_adduction_l	hip_rotation_l	knee_angle_l	ankle_angle_l	subtalar_angle_l	mtp_angle_l	lumbar_extension	lumbar_bending	lumbar_rotation
6.925000	9.897285	1.680254	-178.925467	0.305735	0.782459	-1.225821	40.751790	-17.791177	-23.671742	-51.083827	14.330536	4.239816	0.000000	41.910373	-22.639472	-18.291158	-48.950759	12.302452	10.928944	0.000000	-5.198141	1.739877	1.122626
6.930000	9.899152	1.682080	-178.986440	0.304781	0.786192	-1.225814	40.062444	-17.477713	-23.796125	-49.840638	13.819833	4.262418	0.000000	41.138384	-22.420802	-18.544620	-47.714575	11.814615	10.839746	0.000000	-5.029843	1.766075	1.081400
6.935000	9.860107	1.660308	-179.010139	0.303877	0.789676	-1.225749	39.358817	-17.230801	-23.944822	-48.665250	13.354730	4.292990	0.000000	40.362464	-22.168099	-18.772903	-46.523373	11.354097	10.750644	0.000000	-4.920817	1.724190	1.138353
6.940000	9.881034	1.685451	-179.093855	0.302883	0.793248	-1.225664	38.695754	-16.897719	-24.078894	-47.422504	12.848094	4.333760	0.000000	39.614642	-21.974941	-19.016627	-45.306831	10.863246	10.672736	0.000000	-4.720477	1.786806	1.177206
6.945000	9.837709	1.689168	-179.125854	0.301932	0.796756	-1.225709	37.977411	-16.603206	-24.223069	-46.225251	12.385244	4.310590	0.000000	38.834652	-21.751855	-19.226915	-44.102365	10.327326	10.575870	0.000000	-4.586217	1.813394	1.091842
6.950000	9.801294	1.703511	-179.168356	0.300938	0.800138	-1.225675	37.269086	-16.311198	-24.376152	-45.036257	11.887269	4.363024	0.000000	38.067439	-21.530961	-19.411665	-42.914382	9.846260	10.490665	0.000000	-4.447878	1.826909	1.092498
6.955000	9.717157	1.671648	-179.154352	0.300004	0.803415	-1.225719	36.519654	-16.082140	-24.518337	-43.871949	11.402572	4.420846	0.000000	37.272932	-21.244496	-19.565411	-41.730269	9.362234	10.423464	0.000000	-4.371776	1.780558	1.021521
6.960000	9.735547	1.706425	-179.208200	0.299017	0.806472	-1.225628	35.873743	-15.775319	-24.661525	-42.670685	10.866758	4.528072	0.000000	36.592413	-21.044091	-19.729681	-40.577123	8.903191	10.354492	0.000000	-4.178840	1.820264	1.041609
6.965000	9.627151	1.677838	-179.193280	0.298049	0.809590	-1.225656	35.104445	-15.549041	-24.816244	-41.500745	10.369419	4.608486	0.000000	35.783300	-20.763920	-19.879401	-39.398454	8.407454	10.300889	0.000000	-4.113799	1.781390	0.988973
6.970000	9.642239	1.720494	-179.261369	0.297031	0.812480	-1.225565	34.482728	-15.233424	-24.954944	-40.334637	9.846104	4.716693	0.000000	35.098994	-20.578201	-20.051783	-38.233416	7.894600	10.193157	0.000000	-3.908824	1.859272	1.001912
6.975000	9.539845	1.723027	-179.252579	0.296034	0.815303	-1.225394	33.743814	-15.019709	-25.175180	-39.217788	9.361429	4.833119	0.000000	34.333280	-20.314281	-20.146468	-37.105639	7.412814	10.087686	0.000000	-3.852296	1.849722	1.014889
6.980000	9.557393	1.757806	-179.303973	0.295056	0.818018	-1.225294	33.138599	-14.732738	-25.343308	-38.073549	8.826204	4.943835	0.000000	33.675505	-20.109308	-20.280430	-35.964608	6.937498	9.988297	0.000000	-3.630170	1.939843	0.988474
6.985000	9.547682	1.759469	-179.311575	0.294084	0.820555	-1.225123	32.503227	-14.506813	-25.522270	-36.947462	8.308220	5.077605	0.000000	33.013325	-19.847741	-20.381913	-34.858241	6.576113	9.978163	0.000000	-3.465226	1.960410	0.973324
6.990000	9.434600	1.732216	-179.265751	0.293159	0.823065	-1.225091	31.763664	-14.319831	-25.720113	-35.849256	7.874041	5.200421	0.000000	32.282852	-19.563842	-20.462775	-33.803907	6.225696	10.011506	0.000000	-3.412819	1.908424	0.927757
6.995000	9.430376	1.784960	-179.274709	0.292088	0.825441	-1.224913	31.120147	-14.036297	-25.922074	-34.721692	7.411334	5.317054	0.000000	31.642252	-19.365683	-20.545780	-32.731835	5.878031	9.916520	0.000000	-3.212714	1.993216	0.885161
7.000000	9.378755	1.772372	-179.243101	0.291227	0.827673	-1.224805	30.493195	-13.849830	-26.124800	-33.712089	7.021534	5.380299	0.000000	30.990138	-19.100856	-20.605477	-31.690504	5.490926	9.782002	0.000000	-3.091483	1.967898	0.868699
7.005000	9.368938	1.816358	-179.269281	0.290186	0.829814	-1.224558	29.885817	-13.584474	-26.294191	-32.653737	6.625720	5.481359	0.000000	30.374184	-18.900899	-20.648654	-30.687816	5.168159	9.645442	0.000000	-2.896755	2.057681	0.872195
7.010000	9.323743	1.806612	-179.210088	0.289336	0.831762	-1.224495	29.266165	-13.399235	-26.487544	-31.660685	6.271010	5.563115	0.000000	29.771430	-18.635201	-20.657431	-29.716599	4.841879	9.615333	0.000000	-2.767861	2.048354	0.783116
7.015000	9.343731	1.809128	-179.222760	0.288389	0.833614	-1.224267	28.725469	-13.189360	-26.632121	-30.660075	5.868661	5.690228	0.000000	29.199369	-18.394042	-20.731972	-28.726149	4.544727	9.604122	0.000000	-2.548915	2.091864	0.735728
7.020000	9.299778	1.817904	-179.158046	0.287537	0.835356	-1.224210	28.135466	-12.998799	-26.837809	-29.722323	5.532052	5.772275	0.000000	28.619194	-18.165548	-20.768484	-27.764056	4.195548	9.548252	0.000000	-2.422783	2.100721	0.627278
7.025000	9.335902	1.846903	-179.175765	0.286600	0.836997	-1.223968	27.649143	-12.774084	-26.989390	-28.785387	5.207000	5.904570	0.000000	28.105442	-17.979630	-20.856912	-26.827638	3.855091	9.439431	0.000000	-2.185219	2.171654	0.615175
7.030000	9.335655	1.880242	-179.159028	0.285714	0.838488	-1.223845	27.148757	-12.558005	-27.170348	-27.910188	4.902792	6.008624	0.000000	27.595496	-17.808050	-20.908058	-25.931481	3.511272	9.313162	0.000000	-1.996977	2.217930	0.577986
7.035000	9.344544	1.907087	-179.138136	0.284895	0.839906	-1.223618	26.673134	-12.364022	-27.356549	-27.049461	4.577512	6.114666	0.000000	27.108510	-17.623560	-20.968846	-25.057067	3.157874	9.185233	0.000000	-1.808121	2.278560	0.529076
7.040000	9.399642	1.934182	-179.108495	0.284148	0.841138	-1.223553	26.251583	-12.158947	-27.531893	-26.180211	4.195681	6.213146	0.000000	26.709267	-17.468386	-21.052370	-24.242101	2.817495	9.156773	0.000000	-1.579439	2.318548	0.428318
7.045000	9.347364	1.929809	-179.043343	0.283427	0.842307	-1.223545	25.742950	-11.998780	-27.702611	-25.375823	3.913007	6.293470	0.000000	26.202206	-17.277106	-21.087971	-23.420857	2.551166	9.121625	0.000000	-1.472458	2.300564	0.329262
7.050000	9.384612	1.950083	-179.017322	0.282695	0.843349	-1.223439	25.347180	-11.823862	-27.902634	-24.582286	3.574058	6.368340	0.000000	25.810683	-17.126148	-21.199178	-22.643512	2.222822	9.034848	0.000000	-1.264474	2.332566	0.279648
7.055000	9.478230	2.008542	-179.059504	0.281935	0.844274	-1.223218	25.053809	-11.607857	-28.057710	-23.847657	3.245205	6.458865	0.000000	25.457709	-17.017758	-21.298156	-21.875400	1.995597	8.932153	0.000000	-0.980240	2.424255	0.331416
7.060000	9.495910	2.060291	-179.046831	0.281241	0.845175	-1.223021	24.680726	-11.407733	-28.230859	-23.127892	2.979298	6.461602	0.000000	25.062138	-16.879780	-21.270242	-21.133742	1.762699	8.699584	0.000000	-0.809524	2.522213	0.298323
7.065000	9.543499	2.083254	-179.064124	0.280556	0.845895	-1.222876	24.365799	-11.240592	-28.399248	-22.444583	2.675025	6.529169	0.000000	24.717889	-16.762490	-21.376790	-20.479520	1.549138	8.638808	0.000000	-0.598393	2.563102	0.306145
7.070000	9.417579	1.996267	-178.958855	0.279710	0.846794	-1.222349	23.833630	-11.265962	-28.671916	-21.792007	2.496461	6.732356	0.000000	24.175876	-16.445249	-21.340453	-19.783509	1.408580	8.578521	0.000000	-0.579447	2.535204	0.130627
7.075000	9.586557	2.096249	-179.020722	0.279247	0.847178	-1.222546	23.693372	-10.993223	-28.787921	-21.167148	2.258194	6.840030	0.000000	24.023370	-16.455549	-21.436121	-19.200392	1.264469	8.620650	0.000000	-0.257635	2.625610	0.178197
7.080000	9.583941	2.065144	-178.982360	0.278468	0.847834	-1.221967	23.352205	-10.958490	-29.008185	-20.592930	2.045579	6.928556	0.000000	23.654695	-16.236731	-21.479518	-18.577994	1.152252	8.686798	0.000000	-0.098258	2.666040	0.104095
7.085000	9.553911	2.095941	-178.962819	0.277956	0.848308	-1.221898	23.030043	-10.826917	-29.201676	-20.077433	1.898621	7.079207	0.000000	23.327340	-16.148912	-21.557733	-18.035995	1.000322	8.720845	0.000000	-0.015293	2.694370	0.087705
